<svg xmlns="http://www.w3.org/2000/svg" viewBox="0 0 1290.1 1529.28487"><defs><style>.cls-1{fill:#f85c70;}.cls-2{fill:#343a40;}</style></defs><title>Recurso 4</title><g id="Capa_2" data-name="Capa 2"><g id="Capa_1-2" data-name="Capa 1"><path class="cls-1" d="M898.86991,750.85163c-12.97388,1.8859-25.84755,4.48259-38.97635,5.14766a13.74821,13.74821,0,0,1-5.89471,1.0113c-.41-.66508-.7471-.59223-1.02042.1002-25.38294,4.08166-50.784,8.09047-76.15783,12.25409-30.53055,5.0201-60.87888,10.98777-91.13606,17.45647-29.83812,6.37761-59.51225,13.34745-89.11347,20.69087a1299.23252,1299.23252,0,0,0-161.15318,51.44909C380.6615,880.39011,327.536,905.35382,277.66306,936.759c-34.32972,21.6202-65.28846,47.27646-91.42762,78.39a251.29864,251.29864,0,0,0-39.93293,65.68038c-11.75316,28.34392-18.10341,57.70826-18.1489,88.36638-.0456,31.45988,7.398,61.30711,19.81615,90.05186,22.185,51.32152,59.33914,88.94948,107.29869,116.42781,17.25606,9.88538,35.6145,17.35626,55.31221,20.98237,35.4322,6.53254,64.52322-5.05647,88.36637-31.30485,9.59378-10.5687,16.64559-22.74082,22.1759-35.83314,8.12688-19.2058,12.69144-39.37718,16.18092-59.84017,7.04269-41.29967,10.7417-83.08213,17.8846-124.36345,4.3459-25.10963,9.12-50.15542,13.83036-75.20121q10.646-56.68784,21.4561-113.34843c6.59626-34.64869,13.67543-69.20629,19.58838-103.96419,1.51238-8.86487,4.86518-12.61865,13.393-14.53181,11.95346-2.69689,23.54247-6.96083,35.30464-10.5231,1.90414-.574,3.85388-1.00229,6.91513-1.7857-1.86772,40.024-3.70814,79.28286-5.53943,118.54148-.15487.0912-.42819.22777-.42819.27337a7.19875,7.19875,0,0,0,.37352.81088c-1.05683,20.44487-1.96792,40.89874-3.21611,61.33437-1.42129,23.39678-2.95191,46.79356-4.79233,70.15374q-4.4825,56.83833-12.88279,113.24823a982.15276,982.15276,0,0,1-19.82527,97.5957c-10.65968,41.992-24.42626,82.8726-44.26972,121.56646-14.66854,28.58994-32.42563,54.76546-56.451,76.422-18.158,16.37222-38.59366,28.82683-61.86276,36.42527-8.22715,2.68777-16.80963,3.99056-25.31916,5.4574-1.25741.21865-2.82446-.17316-3.47129,1.4942H296.559c-6.18632-2.10467-12.61854-1.54881-18.97791-1.7857-3.81751-.54674-7.65316-1.0114-11.45232-1.66736-27.05025-4.68289-52.87956-13.16517-77.90711-24.399-56.78816-25.50133-102.11476-64.54141-136.36252-116.23651A324.57417,324.57417,0,0,1,2.40528,1263.38387c-.31885-1.77657-.68331-3.59875-2.40528-4.692v-114.797c2.81534-4.11814,2.76974-9.05616,3.74456-13.64808q18.17627-85.70139,76.6042-150.9308c28.33491-31.68765,61.617-57.09789,97.96015-78.86368,54.74734-32.79,113.26647-56.9066,173.78084-76.59519a1075.92294,1075.92294,0,0,1,126.56832-33.23646c35.04957-6.8514,70.254-12.68238,105.76818-16.58175a3.94081,3.94081,0,0,1,3.03394-.4373c2.84259-.37369,5.6943-.75628,8.53689-1.12985.80176-.06373,1.60352-.13669,2.40523-.20042q11.794-1.2984,23.58807-2.60569c.79264-.0456,1.58528-.10021,2.36886-.14581q4.93351-.56037,9.84885-1.12062c.83819-.07285,1.67637-.13668,2.50549-.20953q5.60316-.61509,11.21549-1.23907a.89212.89212,0,0,1,1.05683-.10031q5.63052-.60125,11.252-1.20259l3.77186-.27326q5.63052-.54669,11.27015-1.1115l2.40528-.1914q4.94721-.533,9.90352-1.07514a6.19,6.19,0,0,1,3.699-.2915q7.06556-.656,14.1401-1.312c.7471-.03637,1.48508-.07285,2.22306-.11833q6.39582-.57405,12.78253-1.148c1.22088-.073,2.43264-.13669,3.65347-.20042,29.54656-2.624,59.17515-4.04528,88.76725-5.89482,12.43637-.7744,24.8545-1.5488,37.29993-1.91326C866.3805,751.38914,882.58878,749.77649,898.86991,750.85163Z"/><path class="cls-2" d="M1290.1,1317.457c-3.03.64761-5.8272-.5602-8.72145-1.05826q-72.93627-12.55279-145.878-25.07348c-35.17817-6.07619-70.33-12.3041-105.50588-18.3938q-77.30667-13.38384-154.62995-26.6735-29.24591-5.05068-58.477-10.18776c-1.1209-.19544-2.23712-.43166-3.36528-.56921-4.78629-.58322-4.797-.5748-5.97351,4.03467-2.53766,9.94269-3.224,20.21069-5.27325,30.23546-4.69229,22.95439-8.74773,46.15567-18.0876,67.79131-14.96747,34.67185-40.95815,54.91958-79.21307,58.03645-42.99563,3.503-73.21087-17.02367-95.22186-51.78376-14.91833-23.55913-17.54575-49.8179-14.27789-76.958,4.51162-37.47034,24.33515-65.61015,54.16194-87.20166,31.42556-22.74878,66.94692-29.39284,104.98021-24.95679,4.2658.49747,8.23424,2.52465,12.97833,2.51639.51732-5.29878,1.17536-10.4556,1.50034-15.63335q2.54541-40.551,3.43993-81.17435c.61292-28.68574,1.24936-57.36323.64478-86.05231-.84889-40.28743-1.58467-80.57895-2.7602-120.85729-.67014-22.964-2.10592-45.90569-3.2289-68.856-.1861-3.80312.20227-4.41728,5.27592-5.26476q13.79347-2.30368,27.63367-4.32527,26.98763-3.98616,53.99378-7.84754c4.04976-.58572,8.11312-1.07886,12.15855-1.69177,2.88032-.4365,4.31877.4053,3.97261,3.61085-1.51436,14.0204-2.88541,28.05639-4.42846,42.07354-1.54247,14.014-3.22832,28.01211-4.84994,42.01733q-3.60967,31.17686-7.22486,62.35313-2.46072,21.00383-5.04279,41.99347-4.3335,34.86487-8.78526,69.715-3.676,28.76356-7.497,57.50845c-3.07692,22.98817-6.2677,45.96107-9.38191,68.94432-.61049,4.50545-1.00011,9.04209-1.67184,13.53744-.49663,3.32391.68432,4.81457,4.01757,5.74721,16.6484,4.65759,33.205,9.64149,49.81848,14.42578q95.10045,27.38753,190.21075,54.74141c47.859,13.82989,95.76337,27.51714,143.453,41.91248,20.24364,6.11047,40.63768,11.8324,60.49646,19.2336,7.27608,2.71166,13.76991,6.83941,20.75955,10.03069Zm-558.80917-95.37058c-13.98762-.17334-27.11184,4.02415-35.43624,10.582-13.63278,10.73937-17.75466,27.54533-10.15073,42.72683,8.1844,16.34052,25.28385,22.78832,41.21073,19.5454,8.77141-1.786,13.96409-8.284,17.72367-15.78507,7.5822-15.128,11.98221-31.34886,15.77648-47.76212.60658-2.62382-.00659-3.79977-2.56293-4.35922C748.31592,1224.94714,738.83933,1222.53919,731.29083,1222.08643Z"/><path class="cls-1" d="M1188.75205,2.46943c6.24439,4.53425,10.671,9.61266,12.6105,17.26032,2.0215,7.97089.59039,15.85524-.22213,23.7604-2.29259,22.30263-12.27632,40.21862-30.62976,53.29383-6.41425,4.5696-13.79977,6.94712-21.26845,9.01543-25.26991,6.998-50.87824,12.42283-76.99554,14.92134a372.27012,372.27012,0,0,1-83.8383-1.36024c-17.5887-2.29448-35.04962-5.415-52.61614-7.88028-26.85909-3.76938-53.52442-3.7724-80.21377,1.1436a237.41026,237.41026,0,0,0-62.64875,20.679c-35.205,17.41069-63.54728,42.8926-87.61872,73.51178-29.14147,37.06825-49.54552,78.79634-65.92458,122.75441-12.4263,33.34953-21.65565,67.57912-28.91062,102.3413-5.669,27.16276-10.556,54.48721-13.49032,82.12259-.59519,5.60557-1.10463,11.29206-3.17472,17.403-2.2-7.22424-2.68159-14.03638-3.26585-20.72623-1.94151-22.23057-2.836-44.52575-3.12193-66.84491-.46986-36.67775.62777-73.33565,1.95962-109.971,1.59609-43.904,4.09668-87.77478,6.10179-131.66466,1.008-22.06418,1.99611-44.13321,2.58829-66.2109.34233-12.76219-.68811-25.46779-4.32527-37.84348-4.58919-15.61518-13.7192-27.03571-29.58418-32.12556.39762-2.48415,2.16993-1.57979,3.23715-1.71048,57.40824-7.03036,114.91432-13.1844,172.4234-19.324,42.10966-4.49561,84.16527-9.496,126.26267-14.11017Q920.749,24.913,975.45156,19.28606q77.44844-8.094,154.90989-16.06369c9.09839-.94138,18.20158-1.83741,27.3-2.74709C1158.75431.366,1183.50275-1.34225,1188.75205,2.46943Z"/><path class="cls-2" d="M739.13261,309.58455a405.26474,405.26474,0,0,1,1.31625-57.93213,260.502,260.502,0,0,1,11.29081-54.64768c9.37248-29.35636,29.64307-47.8059,57.59437-58.806,25.667-10.1011,52.35356-16.938,78.86724-24.29477,8.315-2.30716,16.58158-1.95834,24.53513,2.19169,9.27239,4.83806,14.36465,12.32,15.31872,22.6478.6311,6.83155.06364,13.67062-.49889,20.46513-1.57666,19.04043-3.33667,38.06652-5.152,57.08609-2.03093,21.27838-4.24778,42.539-6.29681,63.81567-1.57033,16.30484-2.97349,32.6257-4.50912,48.934-2.11067,22.41525-4.301,44.823-6.408,67.23861q-1.56474,16.64676-2.94588,33.3106c-1.50893,18.36248-3.39523,36.68518-5.34433,55.006-1.75608,16.50631-2.97574,33.069-4.518,49.59886-2.07064,22.19391-4.22627,44.37994-6.34053,66.56981q-2.16794,22.75356-4.3231,45.50831-3.03276,31.93371-6.05834,63.868c-.809,8.60459-1.53971,17.21652-2.31687,25.82412-.43066,4.77061-.43716,4.89781-5.26375,5.03077-23.889.6583-47.627,3.75966-71.52852,4.3091-8.40048.193-16.77994,1.26011-25.17132,1.8978-4.19382.3188-4.37808.09192-4.64633-4.44873q-2.89838-49.057-5.82253-98.11252c-1.29064-21.34573-2.56819-42.69321-4.04985-64.02614-1.986-28.59241-4.21517-57.16788-6.23859-85.75783-1.1083-15.66217-1.92608-31.3449-3.02045-47.00815-1.6806-24.0543-3.58624-48.09313-5.20737-72.15128-1.239-18.388-2.21927-36.79378-3.23323-55.19613C738.96136,316.87562,739.13261,313.22538,739.13261,309.58455Z"/><path class="cls-1" d="M554.94076,767.85626c-9.21949,1.266-18.43528,2.55986-27.66,3.78684-5.22288.69466-5.60779.4561-5.36214-4.72783.53868-11.37013,1.21849-22.73426,1.93359-34.09505,1.50726-23.94341-.14376-47.79181-2.16406-71.621-2.85229-33.64354-9.03124-66.72021-17.44782-99.3884-6.30557-24.47475-14.62647-48.33629-22.528-72.31356-13.38713-40.6235-27.1173-81.13414-40.75354-121.67532-12.04235-35.80252-24.21846-71.56019-36.21323-107.37863-9.53443-28.47167-18.8336-57.02205-28.33833-85.50375-4.38358-13.13582-5.143-26.20044-.58435-39.48269,7.12794-20.76809,21.13374-34.1866,42.35748-39.75066,23.10282-6.05667,46.28726-11.80162,69.43516-17.68632,9.44868-2.40205,18.86725-4.92884,28.34717-7.20017,28.11875-6.73706,64.29566,10.07577,68.98136,48.93734a99.90285,99.90285,0,0,1,.49955,23.84982c-.16107,1.3527-.15614,2.72754-.18676,4.09308-.64707,28.914-1.22812,57.82969-1.94564,86.742-.90948,36.64643-1.95556,73.28946-2.8932,109.93523q-1.34559,52.58582-2.58771,105.17427-1.471,61.45806-2.90076,122.9172-1.15353,46.43892-2.5349,92.87209-1.09868,35.49-2.65936,70.96494c-.34575,7.94972-1.20248,15.88467-2.04248,23.80327-.65041,6.13174-.80026,6.11765-6.86386,6.96-1.53609.21332-3.07416.41257-4.60958.61769C556.18112,767.6918,554.96165,767.85339,554.94076,767.85626Z"/></g></g></svg>